<?xml version="1.0" encoding="UTF-8" standalone="no"?>
<!-- Created with Inkscape (http://www.inkscape.org/) -->
<svg
   xmlns:dc="http://purl.org/dc/elements/1.1/"
   xmlns:cc="http://web.resource.org/cc/"
   xmlns:rdf="http://www.w3.org/1999/02/22-rdf-syntax-ns#"
   xmlns:svg="http://www.w3.org/2000/svg"
   xmlns="http://www.w3.org/2000/svg"
   xmlns:sodipodi="http://sodipodi.sourceforge.net/DTD/sodipodi-0.dtd"
   xmlns:inkscape="http://www.inkscape.org/namespaces/inkscape"
   width="744.09448819"
   height="1052.3622047"
   id="svg2"
   sodipodi:version="0.32"
   inkscape:version="0.44.1"
   sodipodi:docbase="/home/kesler/svnwork/libbspline/www"
   sodipodi:docname="bspline_logo.svg"
   inkscape:export-filename="/home/kesler/svnwork/libbspline/www/bspline_logo.png"
   inkscape:export-xdpi="102.54947"
   inkscape:export-ydpi="102.54947">
  <defs
     id="defs4" />
  <sodipodi:namedview
     id="base"
     pagecolor="#ffffff"
     bordercolor="#666666"
     borderopacity="1.0"
     gridtolerance="10000"
     guidetolerance="10"
     objecttolerance="10"
     inkscape:pageopacity="0.0"
     inkscape:pageshadow="2"
     inkscape:zoom="7.9195959"
     inkscape:cx="592.49138"
     inkscape:cy="933.64557"
     inkscape:document-units="px"
     inkscape:current-layer="layer1"
     inkscape:window-width="1680"
     inkscape:window-height="959"
     inkscape:window-x="0"
     inkscape:window-y="25" />
  <metadata
     id="metadata7">
    <rdf:RDF>
      <cc:Work
         rdf:about="">
        <dc:format>image/svg+xml</dc:format>
        <dc:type
           rdf:resource="http://purl.org/dc/dcmitype/StillImage" />
      </cc:Work>
    </rdf:RDF>
  </metadata>
  <g
     inkscape:label="Layer 1"
     inkscape:groupmode="layer"
     id="layer1">
    <path
       style="fill:none;fill-rule:evenodd;stroke:#192ca2;stroke-width:3.54330707;stroke-linecap:round;stroke-linejoin:miter;stroke-miterlimit:4;stroke-dasharray:none;stroke-opacity:1"
       d="M 283.5714,31.647896 C 283.5714,48.43361 283.53251,63.605043 283.90316,87.867256 C 284.25452,110.36206 283.57675,116.53505 295.75015,125.01011 C 308.17942,133.6633 324.20652,129.518 329.79076,123.9133 C 341.14901,112.51342 339.37199,104.36802 339.18417,96.770446 C 338.93578,86.72309 328.86689,72.391434 312.12796,72.58626 C 297.03192,72.761964 289.05109,78.953555 284.40823,92.846232"
       id="path1872"
       sodipodi:nodetypes="cssssss" />
    <path
       style="fill:none;fill-rule:evenodd;stroke:#192ca2;stroke-width:3.54330707;stroke-linecap:round;stroke-linejoin:miter;stroke-miterlimit:4;stroke-dasharray:none;stroke-opacity:1"
       d="M 384.28974,84.921103 C 380.58584,78.610468 380.04238,75.361264 371.15775,71.217841 C 362.32829,67.100146 352.1837,71.970748 349.94455,78.092843 C 346.50004,87.510539 349.87963,91.676429 356.00546,95.967848 C 365.2022,102.41058 370.54949,100.06315 378.22882,104.67619 C 382.50297,107.24371 386.26677,114.40479 385.29989,118.42619 C 384.24646,122.80757 379.04037,129.47207 373.93567,129.63199 C 365.0659,129.90987 353.22754,125.94022 348.17678,119.54865"
       id="path1874"
       sodipodi:nodetypes="csssssss" />
    <path
       style="fill:none;fill-rule:evenodd;stroke:#192ca2;stroke-width:3.54330707;stroke-linecap:round;stroke-linejoin:miter;stroke-miterlimit:4;stroke-dasharray:none;stroke-opacity:1"
       d="M 458.03087,38.464893 C 460.30371,36.697126 464.84939,19.650802 467.12224,42.505503 C 469.39508,65.360205 463.52357,97.748224 466.11208,119.78217 C 468.7006,141.81612 475.89794,124.13845 478.48646,121.54993"
       id="path1884"
       sodipodi:nodetypes="csss" />
    <path
       sodipodi:nodetypes="csss"
       id="path1886"
       d="M 489.85059,78.410612 C 491.22552,77.437421 493.97537,68.053078 495.3503,80.635048 C 496.72523,93.217019 493.17333,111.04727 494.73922,123.1774 C 496.30511,135.30753 500.65906,125.57562 502.22495,124.15058"
       style="fill:none;fill-rule:evenodd;stroke:#192ca2;stroke-width:3.54330707;stroke-linecap:round;stroke-linejoin:miter;stroke-miterlimit:4;stroke-dasharray:none;stroke-opacity:1" />
    <path
       style="fill:none;fill-rule:evenodd;stroke:#192ca2;stroke-width:3.54330707;stroke-linecap:round;stroke-linejoin:miter;stroke-miterlimit:4;stroke-dasharray:none;stroke-opacity:1"
       d="M 513.58918,80.935993 C 514.96411,79.962802 517.71396,70.578459 519.08889,83.160429 C 520.46382,95.7424 516.91192,113.57265 518.47781,125.70278 C 520.0437,137.83291 524.39765,128.101 525.96354,126.67596"
       id="path1890"
       sodipodi:nodetypes="csss" />
    <path
       style="fill:none;fill-rule:evenodd;stroke:#192ca2;stroke-width:3.54330707;stroke-linecap:round;stroke-linejoin:miter;stroke-miterlimit:4;stroke-dasharray:none;stroke-opacity:1"
       d="M 519.65018,89.477596 C 521.16541,81.270107 523.56452,76.345613 529.24663,74.325308 C 534.92874,72.305003 540.45919,73.707484 542.63114,75.335461 C 545.71568,77.64746 551.4898,80.718047 551.97506,95.033436 C 552.48013,109.93318 550.64924,117.31992 552.48014,127.86339 C 554.31104,138.40686 559.10927,125.77995 557.78344,125.08547"
       id="path1892"
       sodipodi:nodetypes="csssss" />
    <path
       style="fill:none;fill-rule:evenodd;stroke:#192ca2;stroke-width:3.54299998;stroke-linecap:round;stroke-linejoin:miter;stroke-miterlimit:4;stroke-dasharray:none;stroke-opacity:1"
       d="M 568.13749,95.538512 C 576.59752,95.538512 599.45222,95.033435 608.29106,95.285974 C 617.12989,95.538512 615.36212,95.664781 613.34181,88.719982 C 611.34007,81.838977 607.02836,75.707154 601.72506,73.567694 C 595.9847,71.251917 587.01601,71.775292 582.02709,73.062618 C 578.04636,74.089793 575.45272,76.393704 573.18825,79.376071 C 571.0473,82.19577 568.64257,87.962367 568.39003,93.013131 C 568.1378,98.057592 567.44554,111.93582 570.66287,117.25679 C 573.94587,122.68636 577.4814,126.34816 580.7644,127.61086 C 584.24455,128.94937 594.52773,130.89385 602.48268,128.36847 C 610.43763,125.84309 612.45793,120.53979 613.59435,114.73141"
       id="path1894"
       sodipodi:nodetypes="czzzzzzzzzz" />
    <path
       sodipodi:type="arc"
       style="fill:none;stroke:#192ca2;stroke-width:3.54330707;stroke-miterlimit:4;stroke-dasharray:none;stroke-opacity:1"
       id="path1914"
       sodipodi:cx="343.70441"
       sodipodi:cy="66.20076"
       sodipodi:rx="1.2626907"
       sodipodi:ry="1.2626907"
       d="M 344.9671 66.20076 A 1.2626907 1.2626907 0 1 1  342.44172,66.20076 A 1.2626907 1.2626907 0 1 1  344.9671 66.20076 z"
       transform="translate(150.4394,-0.714286)" />
    <text
       xml:space="preserve"
       style="font-size:125px;font-style:normal;font-variant:normal;font-weight:normal;font-stretch:normal;text-align:start;line-height:125%;writing-mode:lr-tb;text-anchor:start;fill:#494949;fill-opacity:1;stroke:none;stroke-width:1px;stroke-linecap:butt;stroke-linejoin:miter;stroke-opacity:1;font-family:Serif"
       x="140.843"
       y="124.32785"
       id="text2803"
       sodipodi:linespacing="125%"><tspan
         sodipodi:role="line"
         id="tspan2805"
         x="140.843"
         y="124.32785">lib</tspan></text>
    <g
       id="g2828"
       transform="translate(163.5714,-0.714286)">
      <path
         id="path2826"
         d="M 187.63583,70.241369 L 216.67772,71.756598"
         style="fill:none;fill-rule:evenodd;stroke:#008504;stroke-width:0.53149605;stroke-linecap:butt;stroke-linejoin:miter;stroke-miterlimit:4;stroke-dasharray:0.53149606, 0.53149606;stroke-dashoffset:0;stroke-opacity:1" />
      <path
         sodipodi:type="arc"
         style="fill:black;fill-opacity:1;stroke:black;stroke-width:0.23622048;stroke-miterlimit:4;stroke-dasharray:none;stroke-opacity:1"
         id="path2820"
         sodipodi:cx="206.82874"
         sodipodi:cy="48.52309"
         sodipodi:rx="0.75761443"
         sodipodi:ry="0.75761443"
         d="M 207.58635 48.52309 A 0.75761443 0.75761443 0 1 1  206.07112,48.52309 A 0.75761443 0.75761443 0 1 1  207.58635 48.52309 z"
         transform="matrix(-1.5,0,0,-1.5,513.0312,143.7837)" />
      <path
         transform="matrix(-1.5,0,0,-1.5,527.0471,144.6675)"
         d="M 207.58635 48.52309 A 0.75761443 0.75761443 0 1 1  206.07112,48.52309 A 0.75761443 0.75761443 0 1 1  207.58635 48.52309 z"
         sodipodi:ry="0.75761443"
         sodipodi:rx="0.75761443"
         sodipodi:cy="48.52309"
         sodipodi:cx="206.82874"
         id="path2822"
         style="fill:red;fill-opacity:1;stroke:#f01;stroke-width:0.23622048;stroke-miterlimit:4;stroke-dasharray:none;stroke-opacity:1"
         sodipodi:type="arc" />
      <path
         sodipodi:type="arc"
         style="fill:red;fill-opacity:1;stroke:#f01;stroke-width:0.23622048;stroke-miterlimit:4;stroke-dasharray:none;stroke-opacity:1"
         id="path2824"
         sodipodi:cx="206.82874"
         sodipodi:cy="48.52309"
         sodipodi:rx="0.75761443"
         sodipodi:ry="0.75761443"
         d="M 207.58635 48.52309 A 0.75761443 0.75761443 0 1 1  206.07112,48.52309 A 0.75761443 0.75761443 0 1 1  207.58635 48.52309 z"
         transform="matrix(-1.5,0,0,-1.5,498.0052,143.1523)" />
    </g>
    <g
       id="g2834"
       transform="matrix(0.676876,-0.736097,0.736097,0.676876,190.3422,227.2314)">
      <path
         style="fill:none;fill-rule:evenodd;stroke:#008504;stroke-width:0.53149605;stroke-linecap:butt;stroke-linejoin:miter;stroke-miterlimit:4;stroke-dasharray:0.53149606, 0.53149606;stroke-dashoffset:0;stroke-opacity:1"
         d="M 187.63583,70.241369 L 216.67772,71.756598"
         id="path2836" />
      <path
         transform="matrix(-1.5,0,0,-1.5,513.0312,143.7837)"
         d="M 207.58635 48.52309 A 0.75761443 0.75761443 0 1 1  206.07112,48.52309 A 0.75761443 0.75761443 0 1 1  207.58635 48.52309 z"
         sodipodi:ry="0.75761443"
         sodipodi:rx="0.75761443"
         sodipodi:cy="48.52309"
         sodipodi:cx="206.82874"
         id="path2838"
         style="fill:black;fill-opacity:1;stroke:black;stroke-width:0.23622048;stroke-miterlimit:4;stroke-dasharray:none;stroke-opacity:1"
         sodipodi:type="arc" />
      <path
         sodipodi:type="arc"
         style="fill:red;fill-opacity:1;stroke:#f01;stroke-width:0.23622048;stroke-miterlimit:4;stroke-dasharray:none;stroke-opacity:1"
         id="path2840"
         sodipodi:cx="206.82874"
         sodipodi:cy="48.52309"
         sodipodi:rx="0.75761443"
         sodipodi:ry="0.75761443"
         d="M 207.58635 48.52309 A 0.75761443 0.75761443 0 1 1  206.07112,48.52309 A 0.75761443 0.75761443 0 1 1  207.58635 48.52309 z"
         transform="matrix(-1.5,0,0,-1.5,527.0471,144.6675)" />
      <path
         transform="matrix(-1.5,0,0,-1.5,498.0052,143.1523)"
         d="M 207.58635 48.52309 A 0.75761443 0.75761443 0 1 1  206.07112,48.52309 A 0.75761443 0.75761443 0 1 1  207.58635 48.52309 z"
         sodipodi:ry="0.75761443"
         sodipodi:rx="0.75761443"
         sodipodi:cy="48.52309"
         sodipodi:cx="206.82874"
         id="path2842"
         style="fill:red;fill-opacity:1;stroke:#f01;stroke-width:0.23622048;stroke-miterlimit:4;stroke-dasharray:none;stroke-opacity:1"
         sodipodi:type="arc" />
    </g>
    <g
       id="g2844"
       transform="matrix(-0.629321,-0.777147,0.777147,-0.629321,422.6018,292.5725)">
      <path
         style="fill:none;fill-rule:evenodd;stroke:#008504;stroke-width:0.53149605;stroke-linecap:butt;stroke-linejoin:miter;stroke-miterlimit:4;stroke-dasharray:0.53149606, 0.53149606;stroke-dashoffset:0;stroke-opacity:1"
         d="M 187.63583,70.241369 L 216.67772,71.756598"
         id="path2846" />
      <path
         transform="matrix(-1.5,0,0,-1.5,513.0312,143.7837)"
         d="M 207.58635 48.52309 A 0.75761443 0.75761443 0 1 1  206.07112,48.52309 A 0.75761443 0.75761443 0 1 1  207.58635 48.52309 z"
         sodipodi:ry="0.75761443"
         sodipodi:rx="0.75761443"
         sodipodi:cy="48.52309"
         sodipodi:cx="206.82874"
         id="path2848"
         style="fill:black;fill-opacity:1;stroke:black;stroke-width:0.23622048;stroke-miterlimit:4;stroke-dasharray:none;stroke-opacity:1"
         sodipodi:type="arc" />
      <path
         sodipodi:type="arc"
         style="fill:red;fill-opacity:1;stroke:#f01;stroke-width:0.23622048;stroke-miterlimit:4;stroke-dasharray:none;stroke-opacity:1"
         id="path2850"
         sodipodi:cx="206.82874"
         sodipodi:cy="48.52309"
         sodipodi:rx="0.75761443"
         sodipodi:ry="0.75761443"
         d="M 207.58635 48.52309 A 0.75761443 0.75761443 0 1 1  206.07112,48.52309 A 0.75761443 0.75761443 0 1 1  207.58635 48.52309 z"
         transform="matrix(-1.5,0,0,-1.5,527.0471,144.6675)" />
      <path
         transform="matrix(-1.5,0,0,-1.5,498.0052,143.1523)"
         d="M 207.58635 48.52309 A 0.75761443 0.75761443 0 1 1  206.07112,48.52309 A 0.75761443 0.75761443 0 1 1  207.58635 48.52309 z"
         sodipodi:ry="0.75761443"
         sodipodi:rx="0.75761443"
         sodipodi:cy="48.52309"
         sodipodi:cx="206.82874"
         id="path2852"
         style="fill:red;fill-opacity:1;stroke:#f01;stroke-width:0.23622048;stroke-miterlimit:4;stroke-dasharray:none;stroke-opacity:1"
         sodipodi:type="arc" />
    </g>
    <g
       transform="matrix(-0.920504,-0.390733,0.390733,-0.920504,534.494,247.9972)"
       id="g2854">
      <path
         id="path2856"
         d="M 187.63583,70.241369 L 216.67772,71.756598"
         style="fill:none;fill-rule:evenodd;stroke:#008504;stroke-width:0.53149605;stroke-linecap:butt;stroke-linejoin:miter;stroke-miterlimit:4;stroke-dasharray:0.53149606, 0.53149606;stroke-dashoffset:0;stroke-opacity:1" />
      <path
         sodipodi:type="arc"
         style="fill:black;fill-opacity:1;stroke:black;stroke-width:0.23622048;stroke-miterlimit:4;stroke-dasharray:none;stroke-opacity:1"
         id="path2858"
         sodipodi:cx="206.82874"
         sodipodi:cy="48.52309"
         sodipodi:rx="0.75761443"
         sodipodi:ry="0.75761443"
         d="M 207.58635 48.52309 A 0.75761443 0.75761443 0 1 1  206.07112,48.52309 A 0.75761443 0.75761443 0 1 1  207.58635 48.52309 z"
         transform="matrix(-1.5,0,0,-1.5,513.0312,143.7837)" />
      <path
         transform="matrix(-1.5,0,0,-1.5,527.0471,144.6675)"
         d="M 207.58635 48.52309 A 0.75761443 0.75761443 0 1 1  206.07112,48.52309 A 0.75761443 0.75761443 0 1 1  207.58635 48.52309 z"
         sodipodi:ry="0.75761443"
         sodipodi:rx="0.75761443"
         sodipodi:cy="48.52309"
         sodipodi:cx="206.82874"
         id="path2860"
         style="fill:red;fill-opacity:1;stroke:#f01;stroke-width:0.23622048;stroke-miterlimit:4;stroke-dasharray:none;stroke-opacity:1"
         sodipodi:type="arc" />
      <path
         sodipodi:type="arc"
         style="fill:red;fill-opacity:1;stroke:#f01;stroke-width:0.23622048;stroke-miterlimit:4;stroke-dasharray:none;stroke-opacity:1"
         id="path2862"
         sodipodi:cx="206.82874"
         sodipodi:cy="48.52309"
         sodipodi:rx="0.75761443"
         sodipodi:ry="0.75761443"
         d="M 207.58635 48.52309 A 0.75761443 0.75761443 0 1 1  206.07112,48.52309 A 0.75761443 0.75761443 0 1 1  207.58635 48.52309 z"
         transform="matrix(-1.5,0,0,-1.5,498.0052,143.1523)" />
    </g>
    <path
       style="fill:#7b0000;fill-opacity:1;stroke:none;stroke-width:3.54299998;stroke-linecap:round;stroke-miterlimit:4;stroke-dasharray:none;stroke-dashoffset:0;stroke-opacity:1"
       id="path3766"
       d="M 130.97911,155.99386 C 131.04991,155.11491 131.94255,154.61511 132.60022,154.04026 C 138.32094,150.36353 144.35946,147.23301 150.51221,144.35826 C 157.55539,140.96307 164.87423,138.23695 172.32905,135.90584 C 181.40907,133.29938 190.6037,131.10086 199.9356,129.62685 C 209.09413,128.04237 218.37458,127.53699 227.64761,127.22762 C 236.86763,127.00038 245.39866,126.50952 255.3132,127.03727 C 265.23364,127.56534 276.93971,128.63059 287.62395,130.47825 C 300.3461,132.66803 312.95467,135.44685 325.56438,138.19663 C 336.53747,140.78069 347.49286,143.44212 358.33439,146.53622 C 367.69524,149.16076 376.96155,152.09428 386.23439,155.00907 C 395.25663,157.88847 404.44702,160.09182 413.78392,161.64542 C 423.86658,163.01868 433.12199,165.58977 443.2486,166.55308 C 454.58648,167.62676 466.19283,168.39698 478.01974,168.50326 C 489.84691,168.60954 502.83053,168.37822 515.49566,166.57931 C 528.16079,164.7804 541.36635,162.62446 554.00155,159.35315 C 567.92316,156.02201 581.9602,152.11699 595.74335,147.90095 C 604.82507,144.84839 615.73328,139.81971 622.53967,136.11079 C 629.34606,132.40187 626.18952,134.15005 629.12293,132.51692 C 632.05634,130.88379 635.46597,128.34093 631.32263,131.26766 C 627.17929,134.19439 623.91005,136.57618 617.0124,140.55689 C 610.32267,144.41761 599.50301,149.46892 590.21301,152.06631 C 576.40526,156.04515 570.75426,158.17261 556.83632,161.73059 C 544.16862,165.03438 522.88032,168.80736 510.17191,170.55781 C 497.4635,172.30826 485.10704,173.0987 473.12673,172.92883 C 460.82109,172.75435 449.28881,171.94141 437.89879,170.66985 C 426.50878,169.39828 418.27458,167.68446 408.16277,165.58842 C 398.8057,164.00722 389.60396,161.76649 380.56107,158.87259 C 371.30661,155.9627 362.05582,153.04413 352.72782,150.37534 C 341.93642,147.27262 331.03048,144.59746 320.11249,141.9799 C 307.5078,139.17784 294.88711,136.42731 282.14351,134.32022 C 271.43433,132.5178 259.94492,131.67951 249.76316,131.0693 C 239.70766,130.45909 231.32828,131.01408 222.09017,131.29423 C 212.85206,131.57438 203.67199,132.2037 194.44094,133.75417 C 185.2099,135.30463 175.91893,137.46674 166.85857,140.14255 C 159.36768,142.54283 152.01645,145.33967 144.94084,148.79432 C 138.51787,151.85884 133.40021,154.79962 139.5094,151.27254 C 139.04404,151.65945 138.12639,152.58732 137.72148,152.55846 L 130.97911,155.99386 z "
       sodipodi:nodetypes="cccccczcccccczzcczzzzcczzzccccczzzccccc" />
    <path
       sodipodi:nodetypes="cssssss"
       id="path1876"
       d="M 397.21356,170.38724 C 397.21356,153.60153 397.17467,138.43009 397.54532,114.16788 C 397.89668,91.673079 401.86329,82.466565 409.39231,77.025029 C 417.61186,71.084414 437.84868,72.517139 443.43292,78.121839 C 454.79117,89.521719 453.01415,97.667119 452.82633,105.26468 C 452.57794,115.31204 442.50905,129.6437 425.77012,129.44887 C 410.67408,129.27317 402.69325,123.08158 398.05039,109.1889"
       style="fill:none;fill-rule:evenodd;stroke:#192ca2;stroke-width:3.54330707;stroke-linecap:round;stroke-linejoin:miter;stroke-miterlimit:4;stroke-dasharray:none;stroke-opacity:1" />
  </g>
</svg>
